<?xml version="1.0" encoding="utf-8"?>
<!-- Generator: Adobe Illustrator 24.0.1, SVG Export Plug-In . SVG Version: 6.00 Build 0)  -->
<svg version="1.1" id="Layer_1" xmlns="http://www.w3.org/2000/svg" xmlns:xlink="http://www.w3.org/1999/xlink" x="0px" y="0px"
	 viewBox="0 0 32 32" style="enable-background:new 0 0 32 32;" xml:space="preserve">
<style type="text/css">
	.st0{fill:#FFFFFF;}
	.st1{opacity:0.5;fill-rule:evenodd;clip-rule:evenodd;fill:#9ECFE9;}
</style>
<g>
	<path class="st0" d="M14,3.6c0.8-0.8,1.6-1.5,2.5-2.2c7.6,6,9.1,12.9,5.8,16.2c-1.3,1.3-3.2,2-5.8,2C7.9,19.6,6.2,11.4,14,3.6
		 M13.6,3.3C9.3,7.6,7.6,12.5,9,16c1.1,2.6,3.8,4.1,7.5,4.1c2.6,0,4.7-0.7,6.2-2.2c1.3-1.3,1.9-3.1,1.8-5.1C24.2,9,21.4,4.7,16.8,1
		l-0.3-0.2L16.2,1C15.3,1.8,14.4,2.5,13.6,3.3L13.6,3.3z"/>
	<path class="st1" d="M16.5,19.6c9.4,0,10.6-9.9,0-18.2C5.9,9.7,7.1,19.6,16.5,19.6z"/>
	<path class="st0" d="M5.8,8.7c0-1.1,0.1-2.2,0.2-3.4c9.7-1.1,15.6,2.6,15.6,7.3c0,1.8-0.9,3.7-2.7,5.5C12.8,24.2,5.8,19.6,5.8,8.7
		 M5.3,8.7c0,6.1,2.2,10.8,5.7,12.2c2.6,1.1,5.6,0.2,8.2-2.4c1.8-1.8,2.8-3.9,2.8-5.9c0-1.8-0.8-3.5-2.4-4.9
		c-2.9-2.6-7.9-3.6-13.8-2.9l-0.4,0l0,0.4C5.3,6.4,5.3,7.6,5.3,8.7L5.3,8.7z"/>
	<path class="st1" d="M18.8,18.2C25.5,11.6,19.3,3.7,6,5.3C4.4,18.6,12.2,24.8,18.8,18.2z"/>
	<path class="st0" d="M3.7,18.1c-0.8-0.8-1.5-1.6-2.2-2.5c6-7.6,12.9-9.1,16.2-5.8c1.3,1.3,2,3.2,2,5.8
		C19.6,24.1,11.4,25.8,3.7,18.1 M3.3,18.4c4.3,4.3,9.2,6.1,12.7,4.6c2.6-1.1,4.1-3.8,4.1-7.5c0-2.6-0.7-4.7-2.2-6.2
		c-1.3-1.3-3.1-1.9-5.1-1.8C9,7.8,4.7,10.6,1,15.2l-0.2,0.3L1,15.8C1.8,16.8,2.5,17.6,3.3,18.4L3.3,18.4z"/>
	<path class="st1" d="M19.5,15.5c0-9.4-9.9-10.5-18.2,0C9.6,26.1,19.5,24.9,19.5,15.5z"/>
	<path class="st0" d="M8.6,26.3c-1.1,0-2.2-0.1-3.4-0.2c-1.1-9.7,2.7-15.6,7.4-15.6c1.8,0,3.7,0.9,5.5,2.7
		C24.2,19.2,19.6,26.3,8.6,26.3 M8.6,26.8c6.1,0,10.8-2.2,12.2-5.7c1.1-2.6,0.2-5.6-2.4-8.2C16.7,11,14.6,10,12.6,10
		c-1.8,0-3.5,0.8-4.9,2.4c-2.6,2.9-3.6,7.9-2.9,13.8l0,0.4l0.4,0C6.4,26.7,7.5,26.8,8.6,26.8L8.6,26.8z"/>
	<path class="st1" d="M18.2,13.2C11.5,6.5,3.7,12.7,5.3,26.1C18.6,27.6,24.8,19.8,18.2,13.2z"/>
	<path class="st0" d="M18,28.4c-0.8,0.8-1.6,1.5-2.5,2.2c-7.6-6-9.1-12.9-5.8-16.2c1.3-1.3,3.2-2,5.8-2C24.1,12.4,25.8,20.6,18,28.4
		 M18.4,28.7c4.3-4.3,6.1-9.2,4.6-12.7c-1.1-2.6-3.8-4.1-7.5-4.1c-2.6,0-4.7,0.7-6.2,2.2c-1.3,1.3-1.9,3.1-1.8,5.1
		c0.2,3.8,3,8.2,7.7,11.8l0.3,0.2l0.3-0.2C16.7,30.2,17.6,29.5,18.4,28.7L18.4,28.7z"/>
	<path class="st1" d="M15.5,12.5c-9.4,0-10.6,9.9,0,18.2C26.1,22.4,24.9,12.5,15.5,12.5z"/>
	<path class="st0" d="M26.2,23.4c0,1.1-0.1,2.2-0.2,3.4c-9.7,1.1-15.6-2.6-15.6-7.4c0-1.8,0.9-3.7,2.7-5.5
		C19.2,7.8,26.2,12.4,26.2,23.4 M26.7,23.4c0-6.1-2.2-10.8-5.7-12.2c-2.6-1.1-5.6-0.2-8.2,2.4C11,15.4,10,17.4,10,19.4
		c0,1.8,0.8,3.5,2.4,4.9c2.9,2.6,7.9,3.6,13.8,2.9l0.4,0l0-0.4C26.7,25.6,26.7,24.5,26.7,23.4L26.7,23.4z"/>
	<path class="st1" d="M13.2,13.9C6.5,20.5,12.7,28.3,26,26.7C27.6,13.4,19.8,7.2,13.2,13.9z"/>
	<path class="st0" d="M28.3,14c0.8,0.8,1.5,1.6,2.2,2.5c-6,7.6-12.9,9.1-16.2,5.8c-1.3-1.3-2-3.2-2-5.8C12.4,8,20.6,6.2,28.3,14
		 M28.7,13.6C24.4,9.3,19.5,7.6,16,9c-2.6,1.1-4.1,3.8-4.1,7.5c0,2.6,0.7,4.7,2.2,6.2c1.3,1.3,3.1,1.9,5.1,1.8
		c3.9-0.2,8.2-3,11.8-7.7l0.2-0.3L31,16.2C30.2,15.3,29.5,14.4,28.7,13.6L28.7,13.6z"/>
	<path class="st1" d="M12.5,16.5c0,9.4,9.9,10.5,18.2,0C22.4,6,12.5,7.1,12.5,16.5z"/>
	<path class="st0" d="M23.4,5.8c1.1,0,2.2,0.1,3.4,0.2c1.1,9.7-2.7,15.6-7.4,15.6c-1.8,0-3.7-0.9-5.5-2.7
		C7.8,12.8,12.4,5.8,23.4,5.8 M23.4,5.3c-6.1,0-10.8,2.2-12.2,5.7c-1.1,2.6-0.2,5.6,2.4,8.2c1.8,1.8,3.9,2.8,5.9,2.8
		c1.8,0,3.5-0.8,4.9-2.4c2.6-2.9,3.6-7.9,2.9-13.8l0-0.4l-0.4,0C25.6,5.4,24.5,5.3,23.4,5.3L23.4,5.3z"/>
	<path class="st1" d="M13.8,18.9c6.6,6.6,14.5,0.5,12.9-12.9C13.4,4.4,7.2,12.2,13.8,18.9z"/>
</g>
</svg>
